<svg width="148" height="26" viewBox="0 0 148 26" fill="none" xmlns="http://www.w3.org/2000/svg">
<path d="M13.9531 17.375H19.0156C18.9323 18.9375 18.5052 20.3177 17.7344 21.5156C16.974 22.7031 15.9167 23.6354 14.5625 24.3125C13.2083 24.9792 11.599 25.3125 9.73438 25.3125C8.24479 25.3125 6.91146 25.0573 5.73438 24.5469C4.55729 24.0365 3.55729 23.3073 2.73438 22.3594C1.92188 21.401 1.29688 20.25 0.859375 18.9062C0.432292 17.5521 0.21875 16.026 0.21875 14.3281V12.9375C0.21875 11.2396 0.442708 9.71354 0.890625 8.35938C1.33854 7.00521 1.97917 5.84896 2.8125 4.89062C3.64583 3.93229 4.64583 3.19792 5.8125 2.6875C6.97917 2.17708 8.28125 1.92188 9.71875 1.92188C11.6562 1.92188 13.2917 2.27083 14.625 2.96875C15.9583 3.66667 16.9896 4.625 17.7188 5.84375C18.4583 7.0625 18.901 8.45312 19.0469 10.0156H13.9688C13.9271 9.13021 13.7604 8.38542 13.4688 7.78125C13.1771 7.16667 12.7292 6.70312 12.125 6.39062C11.5208 6.07812 10.7188 5.92188 9.71875 5.92188C8.98958 5.92188 8.34896 6.05729 7.79688 6.32812C7.25521 6.59896 6.80208 7.02083 6.4375 7.59375C6.08333 8.16667 5.81771 8.89583 5.64062 9.78125C5.46354 10.6562 5.375 11.6979 5.375 12.9062V14.3281C5.375 15.526 5.45312 16.5625 5.60938 17.4375C5.76562 18.3125 6.01562 19.0365 6.35938 19.6094C6.71354 20.1823 7.16667 20.6094 7.71875 20.8906C8.27083 21.1719 8.94271 21.3125 9.73438 21.3125C10.6406 21.3125 11.3958 21.1719 12 20.8906C12.6042 20.599 13.0677 20.1615 13.3906 19.5781C13.7135 18.9948 13.901 18.2604 13.9531 17.375ZM26.3594 1V25H21.4844V1H26.3594ZM25.7188 15.9531L24.5 15.9844C24.5 14.7969 24.6458 13.7083 24.9375 12.7188C25.2396 11.7188 25.6667 10.849 26.2188 10.1094C26.7708 9.36979 27.4323 8.79688 28.2031 8.39062C28.9844 7.98438 29.8438 7.78125 30.7812 7.78125C31.6146 7.78125 32.375 7.90104 33.0625 8.14062C33.75 8.38021 34.3438 8.76042 34.8438 9.28125C35.3438 9.80208 35.7292 10.4844 36 11.3281C36.2708 12.1719 36.4062 13.1979 36.4062 14.4062V25H31.5V14.375C31.5 13.6562 31.3958 13.0938 31.1875 12.6875C30.9896 12.2812 30.6979 11.9948 30.3125 11.8281C29.9375 11.6615 29.4792 11.5781 28.9375 11.5781C28.3021 11.5781 27.776 11.6927 27.3594 11.9219C26.9427 12.1406 26.6146 12.4479 26.375 12.8438C26.1354 13.2396 25.9635 13.7031 25.8594 14.2344C25.7656 14.7656 25.7188 15.3385 25.7188 15.9531ZM47.5625 25.3125C46.2188 25.3125 45.0156 25.099 43.9531 24.6719C42.8906 24.2448 41.9896 23.6562 41.25 22.9062C40.5208 22.1458 39.9635 21.2708 39.5781 20.2812C39.1927 19.2917 39 18.2344 39 17.1094V16.5156C39 15.2552 39.1771 14.0938 39.5312 13.0312C39.8854 11.9688 40.401 11.0469 41.0781 10.2656C41.7656 9.47396 42.6094 8.86458 43.6094 8.4375C44.6094 8 45.75 7.78125 47.0312 7.78125C48.2292 7.78125 49.2969 7.97917 50.2344 8.375C51.1719 8.76042 51.9635 9.31771 52.6094 10.0469C53.2552 10.7656 53.7448 11.6354 54.0781 12.6562C54.4219 13.6667 54.5938 14.8021 54.5938 16.0625V18.0625H40.9688V14.9219H49.8125V14.5469C49.8125 13.9531 49.7031 13.4323 49.4844 12.9844C49.276 12.5365 48.9635 12.1927 48.5469 11.9531C48.1406 11.7031 47.625 11.5781 47 11.5781C46.4062 11.5781 45.9115 11.7031 45.5156 11.9531C45.1198 12.2031 44.8021 12.5573 44.5625 13.0156C44.3333 13.4635 44.1667 13.9896 44.0625 14.5938C43.9583 15.1875 43.9062 15.8281 43.9062 16.5156V17.1094C43.9062 17.7656 43.9948 18.3646 44.1719 18.9062C44.349 19.4479 44.6094 19.9115 44.9531 20.2969C45.2969 20.6823 45.7135 20.9844 46.2031 21.2031C46.6927 21.4219 47.25 21.5312 47.875 21.5312C48.6458 21.5312 49.3802 21.3854 50.0781 21.0938C50.776 20.7917 51.3802 20.3229 51.8906 19.6875L54.1719 22.2969C53.8281 22.7969 53.3438 23.2812 52.7188 23.75C52.1042 24.2083 51.3646 24.5833 50.5 24.875C49.6354 25.1667 48.6562 25.3125 47.5625 25.3125ZM64.0312 21.5156C64.5521 21.5156 65.0052 21.4167 65.3906 21.2188C65.776 21.0208 66.0729 20.7448 66.2812 20.3906C66.5 20.026 66.6094 19.5885 66.6094 19.0781H71.2031C71.2031 20.3073 70.8854 21.3906 70.25 22.3281C69.625 23.2656 68.7812 24 67.7188 24.5312C66.6562 25.0521 65.4583 25.3125 64.125 25.3125C62.8125 25.3125 61.6667 25.099 60.6875 24.6719C59.7083 24.2344 58.8906 23.625 58.2344 22.8438C57.5781 22.0625 57.0833 21.1562 56.75 20.125C56.4271 19.0833 56.2656 17.9583 56.2656 16.75V16.3438C56.2656 15.1458 56.4271 14.026 56.75 12.9844C57.0833 11.9427 57.5781 11.0312 58.2344 10.25C58.8906 9.46875 59.7031 8.86458 60.6719 8.4375C61.651 8 62.7969 7.78125 64.1094 7.78125C65.4948 7.78125 66.7188 8.04688 67.7812 8.57812C68.8542 9.10938 69.6927 9.875 70.2969 10.875C70.901 11.8646 71.2031 13.0573 71.2031 14.4531H66.6094C66.6094 13.9115 66.5104 13.4271 66.3125 13C66.125 12.5625 65.8333 12.2188 65.4375 11.9688C65.0521 11.7083 64.5729 11.5781 64 11.5781C63.4062 11.5781 62.9167 11.7083 62.5312 11.9688C62.1562 12.2188 61.8698 12.5677 61.6719 13.0156C61.474 13.4635 61.3385 13.974 61.2656 14.5469C61.1927 15.1094 61.1562 15.7083 61.1562 16.3438V16.75C61.1562 17.3958 61.1927 18.0104 61.2656 18.5938C61.3385 19.1667 61.474 19.6719 61.6719 20.1094C61.8802 20.5469 62.1719 20.8906 62.5469 21.1406C62.9219 21.3906 63.4167 21.5156 64.0312 21.5156ZM78.5312 0.984375V25H73.6406V0.984375H78.5312ZM89.2656 8.09375L81.9062 16.5938L78.0156 20.5L76.0625 17.2031L79.2188 13.125L83.3906 8.09375H89.2656ZM84.1094 25L79.3438 17.2344L82.8438 14.5L89.7031 25H84.1094Z" fill="#3F7856"/>
<path d="M118.125 13.125V14.1406C118.125 15.8698 117.885 17.4219 117.406 18.7969C116.938 20.1719 116.266 21.3438 115.391 22.3125C114.526 23.2812 113.495 24.026 112.297 24.5469C111.109 25.0573 109.792 25.3125 108.344 25.3125C106.896 25.3125 105.573 25.0573 104.375 24.5469C103.177 24.026 102.135 23.2812 101.25 22.3125C100.375 21.3438 99.6979 20.1719 99.2188 18.7969C98.7396 17.4219 98.5 15.8698 98.5 14.1406V13.125C98.5 11.3958 98.7396 9.84375 99.2188 8.46875C99.6979 7.08333 100.37 5.90625 101.234 4.9375C102.109 3.96875 103.146 3.22917 104.344 2.71875C105.542 2.19792 106.865 1.9375 108.312 1.9375C109.76 1.9375 111.083 2.19792 112.281 2.71875C113.479 3.22917 114.51 3.96875 115.375 4.9375C116.25 5.90625 116.927 7.08333 117.406 8.46875C117.885 9.84375 118.125 11.3958 118.125 13.125ZM112.984 14.1406V13.0938C112.984 11.9375 112.88 10.9167 112.672 10.0312C112.464 9.13542 112.161 8.38542 111.766 7.78125C111.37 7.17708 110.88 6.72396 110.297 6.42188C109.714 6.10938 109.052 5.95312 108.312 5.95312C107.542 5.95312 106.87 6.10938 106.297 6.42188C105.724 6.72396 105.24 7.17708 104.844 7.78125C104.458 8.38542 104.161 9.13542 103.953 10.0312C103.755 10.9167 103.656 11.9375 103.656 13.0938V14.1406C103.656 15.2865 103.755 16.3073 103.953 17.2031C104.161 18.0885 104.464 18.8385 104.859 19.4531C105.255 20.0677 105.74 20.5312 106.312 20.8438C106.896 21.1562 107.573 21.3125 108.344 21.3125C109.083 21.3125 109.74 21.1562 110.312 20.8438C110.896 20.5312 111.385 20.0677 111.781 19.4531C112.177 18.8385 112.474 18.0885 112.672 17.2031C112.88 16.3073 112.984 15.2865 112.984 14.1406ZM130.922 20.9219V8.09375H135.828V25H131.234L130.922 20.9219ZM131.438 17.4688L132.781 17.4375C132.781 18.5729 132.646 19.6198 132.375 20.5781C132.115 21.5365 131.719 22.3698 131.188 23.0781C130.667 23.7865 130.016 24.3385 129.234 24.7344C128.464 25.1198 127.562 25.3125 126.531 25.3125C125.698 25.3125 124.932 25.1979 124.234 24.9688C123.547 24.7292 122.953 24.3594 122.453 23.8594C121.953 23.349 121.568 22.6979 121.297 21.9062C121.026 21.1042 120.891 20.1458 120.891 19.0312V8.09375H125.766V19.0625C125.766 19.5 125.818 19.875 125.922 20.1875C126.036 20.4896 126.188 20.7396 126.375 20.9375C126.573 21.1354 126.812 21.2812 127.094 21.375C127.385 21.4688 127.703 21.5156 128.047 21.5156C128.911 21.5156 129.589 21.3385 130.078 20.9844C130.578 20.6198 130.927 20.1354 131.125 19.5312C131.333 18.9167 131.438 18.2292 131.438 17.4688ZM147.594 8.09375V11.5156H137.562V8.09375H147.594ZM139.859 3.90625H144.75V19.7031C144.75 20.1719 144.807 20.5312 144.922 20.7812C145.036 21.0312 145.224 21.2083 145.484 21.3125C145.745 21.4062 146.078 21.4531 146.484 21.4531C146.776 21.4531 147.026 21.4427 147.234 21.4219C147.443 21.401 147.635 21.375 147.812 21.3438V24.875C147.396 25.0104 146.953 25.1146 146.484 25.1875C146.016 25.2708 145.505 25.3125 144.953 25.3125C143.901 25.3125 142.99 25.1406 142.219 24.7969C141.458 24.4531 140.875 23.9115 140.469 23.1719C140.062 22.4219 139.859 21.4479 139.859 20.25V3.90625Z" fill="#7EC384"/>
</svg>
