<svg width="37" height="36" viewBox="0 0 37 36" fill="none" xmlns="http://www.w3.org/2000/svg">
<path d="M13.25 23.8438L23.75 11.0938M31.625 19.0625C31.625 17.6535 32.0859 16.3023 32.9064 15.306C33.7269 14.3097 34.8397 13.75 36 13.75V11.625C36 3.125 34.25 1 27.25 1H9.75C2.75 1 1 3.125 1 11.625V12.6875C2.16032 12.6875 3.27312 13.2472 4.09359 14.2435C4.91406 15.2398 5.375 16.591 5.375 18C5.375 19.409 4.91406 20.7602 4.09359 21.7565C3.27312 22.7528 2.16032 23.3125 1 23.3125V24.375C1 32.875 2.75 35 9.75 35H27.25C34.25 35 36 32.875 36 24.375C34.8397 24.375 33.7269 23.8153 32.9064 22.819C32.0859 21.8227 31.625 20.4715 31.625 19.0625Z" stroke="black" stroke-width="2.5" stroke-linecap="round" stroke-linejoin="round"/>
</svg>
