<?xml version="1.0" encoding="UTF-8" standalone="no"?>
<svg
   width="177"
   height="120"
   viewBox="0 0 177 120"
   fill="none"
   version="1.1"
   id="svg48"
   sodipodi:docname="logo.svg"
   inkscape:version="1.2.1 (9c6d41e410, 2022-07-14, custom)"
   xmlns:inkscape="http://www.inkscape.org/namespaces/inkscape"
   xmlns:sodipodi="http://sodipodi.sourceforge.net/DTD/sodipodi-0.dtd"
   xmlns="http://www.w3.org/2000/svg"
   xmlns:svg="http://www.w3.org/2000/svg">
  <sodipodi:namedview
     id="namedview50"
     pagecolor="#ffffff"
     bordercolor="#999999"
     borderopacity="1"
     inkscape:showpageshadow="0"
     inkscape:pageopacity="0"
     inkscape:pagecheckerboard="0"
     inkscape:deskcolor="#d1d1d1"
     showgrid="false"
     inkscape:zoom="4.6612229"
     inkscape:cx="108.12613"
     inkscape:cy="63.824452"
     inkscape:window-width="1920"
     inkscape:window-height="993"
     inkscape:window-x="0"
     inkscape:window-y="0"
     inkscape:window-maximized="1"
     inkscape:current-layer="svg48" />
  <g
     filter="url(#filter0_d_339_142)"
     id="g4">
    <path
       d="M 86.9915,27 C 81.1905,20.671 73.7996,16.3609 65.7533,14.6147 57.7071,12.8686 49.3669,13.7648 41.7875,17.19 34.2081,20.6152 27.7298,26.4156 23.172,33.8578 18.6142,41.2999 16.1814,50.0494 16.1814,59 c 0,8.9506 2.4328,17.7001 6.9906,25.1422 4.5578,7.4422 11.0361,13.2426 18.6155,16.6678 7.5794,3.425 15.9196,4.321 23.9658,2.575 C 73.7996,101.639 81.1905,97.329 86.9915,91 V 78.5115 c 0,-2.8789 -2.1368,-5.2127 -4.7755,-5.2127 -7.5333,0 -20.0372,0 -22.6828,0 -3.3723,0 -5.7887,0 -9.4425,0 v 0 c -3.9112,0 -7.0818,-3.4592 -7.0818,-7.7264 0,-2.385 0,-4.7733 0,-6.5724 0,-1.1727 0,-2.9092 0,-4.782 0,-5.4864 4.0765,-9.935 9.1052,-9.935 v 0 c 3.3724,0 4.6951,0 8.7681,0 2.7109,0 14.3167,0 21.3372,0 2.6387,0 4.7721,-2.3338 4.7721,-5.2127 z"
       fill="#3f7856"
       id="path2" />
  </g>
  <defs
     id="defs23">
    <filter
       id="filter0_d_339_142"
       x="0.181641"
       y="0.74515003"
       width="102.81"
       height="122.51"
       filterUnits="userSpaceOnUse"
       color-interpolation-filters="sRGB">
      <feFlood
         flood-opacity="0"
         result="BackgroundImageFix"
         id="feFlood6" />
      <feColorMatrix
         in="SourceAlpha"
         type="matrix"
         values="0 0 0 0 0 0 0 0 0 0 0 0 0 0 0 0 0 0 127 0"
         result="hardAlpha"
         id="feColorMatrix8" />
      <feOffset
         dy="3"
         id="feOffset10" />
      <feGaussianBlur
         stdDeviation="8"
         id="feGaussianBlur12" />
      <feComposite
         in2="hardAlpha"
         operator="out"
         id="feComposite14" />
      <feColorMatrix
         type="matrix"
         values="0 0 0 0 0 0 0 0 0 0 0 0 0 0 0 0 0 0 0.25 0"
         id="feColorMatrix16" />
      <feBlend
         mode="normal"
         in2="BackgroundImageFix"
         result="effect1_dropShadow_339_142"
         id="feBlend18" />
      <feBlend
         mode="normal"
         in="SourceGraphic"
         in2="effect1_dropShadow_339_142"
         result="shape"
         id="feBlend20" />
    </filter>
  </defs>
  <!-- pola -->
  <g
     filter="url(#filter0_d_339_143)"
     id="g27"
     transform="translate(71.263756,-0.04395001)">
    <path
       d="m 16.0085,91 c 5.801,6.329 13.1919,10.639 21.2382,12.385 8.0463,1.746 16.3864,0.85 23.9658,-2.575 C 68.7919,97.3848 75.2702,91.5844 79.828,84.1422 84.3858,76.7001 86.8186,67.9506 86.8186,59 86.8186,50.0494 84.3858,41.2999 79.828,33.8578 75.2702,26.4156 68.7919,20.6152 61.2125,17.19 53.6331,13.7648 45.293,12.8686 37.2467,14.6147 29.2005,16.3609 21.8095,20.671 16.0085,27 L 45.339,59 Z"
       fill="#7ec384"
       id="path25" />
  </g>
  <defs
     id="defs46">
    <filter
       id="filter0_d_339_143"
       x="0.0083007803"
       y="0.74515498"
       width="102.81"
       height="122.51"
       filterUnits="userSpaceOnUse"
       color-interpolation-filters="sRGB">
      <feFlood
         flood-opacity="0"
         result="BackgroundImageFix"
         id="feFlood29" />
      <feColorMatrix
         in="SourceAlpha"
         type="matrix"
         values="0 0 0 0 0 0 0 0 0 0 0 0 0 0 0 0 0 0 127 0"
         result="hardAlpha"
         id="feColorMatrix31" />
      <feOffset
         dy="3"
         id="feOffset33" />
      <feGaussianBlur
         stdDeviation="8"
         id="feGaussianBlur35" />
      <feComposite
         in2="hardAlpha"
         operator="out"
         id="feComposite37" />
      <feColorMatrix
         type="matrix"
         values="0 0 0 0 0 0 0 0 0 0 0 0 0 0 0 0 0 0 0.25 0"
         id="feColorMatrix39" />
      <feBlend
         mode="normal"
         in2="BackgroundImageFix"
         result="effect1_dropShadow_339_143"
         id="feBlend41" />
      <feBlend
         mode="normal"
         in="SourceGraphic"
         in2="effect1_dropShadow_339_143"
         result="shape"
         id="feBlend43" />
    </filter>
  </defs>
</svg>
