<svg width="37" height="37" viewBox="0 0 37 37" fill="none" xmlns="http://www.w3.org/2000/svg">
<path d="M28.9015 22.4242V22.6742H29.1515H36.75V29.7121C36.75 31.5787 36.0085 33.3688 34.6887 34.6887C33.3688 36.0085 31.5787 36.75 29.7121 36.75H7.28788C5.42132 36.75 3.6312 36.0085 2.31135 34.6887C0.991488 33.3688 0.25 31.5787 0.25 29.7121V5.04545C0.25 3.77362 0.755234 2.55388 1.65456 1.65456C2.55388 0.755234 3.77362 0.25 5.04545 0.25H24.1061C25.3779 0.25 26.5976 0.755234 27.497 1.65456C28.3963 2.55388 28.9015 3.77362 28.9015 5.04545V22.4242ZM29.1515 25.5379H28.9015V25.7879V33.6364V33.8864H29.1515H29.7121C30.8192 33.8864 31.8809 33.4466 32.6638 32.6638C33.4466 31.8809 33.8864 30.8192 33.8864 29.7121V25.7879V25.5379H33.6364H29.1515ZM25.7879 33.8864H26.0379V33.6364V5.04545C26.0379 4.5331 25.8343 4.04174 25.4721 3.67945C25.1098 3.31717 24.6184 3.11364 24.1061 3.11364H5.04545C4.5331 3.11364 4.04174 3.31717 3.67945 3.67945C3.31717 4.04174 3.11364 4.5331 3.11364 5.04545V29.7121C3.11364 32.0164 4.98363 33.8864 7.28788 33.8864H25.7879ZM6.97727 10.6515C6.97727 10.2718 7.12812 9.90759 7.39664 9.63907C7.66516 9.37055 8.02935 9.2197 8.40909 9.2197H20.7424C21.1222 9.2197 21.4864 9.37055 21.7549 9.63907C22.0234 9.90759 22.1742 10.2718 22.1742 10.6515C22.1742 11.0313 22.0234 11.3954 21.7549 11.664C21.4864 11.9325 21.1222 12.0833 20.7424 12.0833H8.40909C8.02935 12.0833 7.66516 11.9325 7.39664 11.664C7.12812 11.3954 6.97727 11.0313 6.97727 10.6515ZM6.97727 18.5C6.97727 18.1203 7.12812 17.7561 7.39664 17.4876C7.66516 17.219 8.02935 17.0682 8.40909 17.0682H20.7424C21.1222 17.0682 21.4864 17.219 21.7549 17.4876C22.0234 17.7561 22.1742 18.1203 22.1742 18.5C22.1742 18.8797 22.0234 19.2439 21.7549 19.5124C21.4864 19.781 21.1222 19.9318 20.7424 19.9318H8.40909C8.02935 19.9318 7.66516 19.781 7.39664 19.5124C7.12812 19.2439 6.97727 18.8797 6.97727 18.5ZM6.97727 26.3485C6.97727 25.9687 7.12812 25.6046 7.39664 25.336C7.66516 25.0675 8.02935 24.9167 8.40909 24.9167H14.0152C14.3949 24.9167 14.7591 25.0675 15.0276 25.336C15.2961 25.6046 15.447 25.9687 15.447 26.3485C15.447 26.7282 15.2961 27.0924 15.0276 27.3609C14.7591 27.6295 14.3949 27.7803 14.0152 27.7803H8.40909C8.02935 27.7803 7.66516 27.6295 7.39664 27.3609C7.12812 27.0924 6.97727 26.7282 6.97727 26.3485Z" fill="black"  stroke-width="0.5"/>
</svg>
