<svg width="37" height="37" viewBox="0 0 37 37" fill="none" xmlns="http://www.w3.org/2000/svg">
<path d="M6.68056 0C4.90876 0 3.20954 0.703842 1.95669 1.95669C0.703842 3.20954 0 4.90876 0 6.68056V10.7917C0 11.2005 0.162425 11.5927 0.451544 11.8818C0.740662 12.1709 1.13279 12.3333 1.54167 12.3333C1.95054 12.3333 2.34267 12.1709 2.63179 11.8818C2.92091 11.5927 3.08333 11.2005 3.08333 10.7917V6.68056C3.08333 4.69489 4.69489 3.08333 6.68056 3.08333H10.7917C11.2005 3.08333 11.5927 2.92091 11.8818 2.63179C12.1709 2.34267 12.3333 1.95054 12.3333 1.54167C12.3333 1.13279 12.1709 0.740662 11.8818 0.451544C11.5927 0.162425 11.2005 0 10.7917 0H6.68056ZM26.2083 0C25.7995 0 25.4073 0.162425 25.1182 0.451544C24.8291 0.740662 24.6667 1.13279 24.6667 1.54167C24.6667 1.95054 24.8291 2.34267 25.1182 2.63179C25.4073 2.92091 25.7995 3.08333 26.2083 3.08333H30.3194C32.3051 3.08333 33.9167 4.69489 33.9167 6.68056V10.7917C33.9167 11.2005 34.0791 11.5927 34.3682 11.8818C34.6573 12.1709 35.0495 12.3333 35.4583 12.3333C35.8672 12.3333 36.2593 12.1709 36.5485 11.8818C36.8376 11.5927 37 11.2005 37 10.7917V6.68056C37 4.90876 36.2962 3.20954 35.0433 1.95669C33.7905 0.703842 32.0912 0 30.3194 0H26.2083ZM3.08333 26.2083C3.08333 25.7995 2.92091 25.4073 2.63179 25.1182C2.34267 24.8291 1.95054 24.6667 1.54167 24.6667C1.13279 24.6667 0.740662 24.8291 0.451544 25.1182C0.162425 25.4073 0 25.7995 0 26.2083V30.3194C0 32.0912 0.703842 33.7905 1.95669 35.0433C3.20954 36.2962 4.90876 37 6.68056 37H10.7917C11.2005 37 11.5927 36.8376 11.8818 36.5485C12.1709 36.2593 12.3333 35.8672 12.3333 35.4583C12.3333 35.0495 12.1709 34.6573 11.8818 34.3682C11.5927 34.0791 11.2005 33.9167 10.7917 33.9167H6.68056C5.72651 33.9167 4.81155 33.5377 4.13694 32.8631C3.46233 32.1885 3.08333 31.2735 3.08333 30.3194V26.2083ZM37 26.2083C37 25.7995 36.8376 25.4073 36.5485 25.1182C36.2593 24.8291 35.8672 24.6667 35.4583 24.6667C35.0495 24.6667 34.6573 24.8291 34.3682 25.1182C34.0791 25.4073 33.9167 25.7995 33.9167 26.2083V30.3194C33.9167 31.2735 33.5377 32.1885 32.8631 32.8631C32.1885 33.5377 31.2735 33.9167 30.3194 33.9167H26.2083C25.7995 33.9167 25.4073 34.0791 25.1182 34.3682C24.8291 34.6573 24.6667 35.0495 24.6667 35.4583C24.6667 35.8672 24.8291 36.2593 25.1182 36.5485C25.4073 36.8376 25.7995 37 26.2083 37H30.3194C32.0912 37 33.7905 36.2962 35.0433 35.0433C36.2962 33.7905 37 32.0912 37 30.3194V26.2083ZM9.25 16.9583C8.84112 16.9583 8.449 17.1208 8.15988 17.4099C7.87076 17.699 7.70833 18.0911 7.70833 18.5C7.70833 18.9089 7.87076 19.301 8.15988 19.5901C8.449 19.8792 8.84112 20.0417 9.25 20.0417H18.5H27.75C28.1589 20.0417 28.551 19.8792 28.8401 19.5901C29.1292 19.301 29.2917 18.9089 29.2917 18.5C29.2917 18.0911 29.1292 17.699 28.8401 17.4099C28.551 17.1208 28.1589 16.9583 27.75 16.9583H9.25Z" fill="black"/>
</svg>
